<?xml version="1.0" encoding="iso-8859-1"?>
<!-- Uploaded to: SVG Repo, www.svgrepo.com, Generator: SVG Repo Mixer Tools -->
<svg fill="#000000" height="800px" width="800px" version="1.1" id="Layer_1" xmlns="http://www.w3.org/2000/svg" xmlns:xlink="http://www.w3.org/1999/xlink" 
	 viewBox="0 0 511.954 511.954" xml:space="preserve">
<g>
	<g>
		<g>
			<path d="M509.244,285.404l-8.371-19.55c-0.119-0.282-0.333-0.503-0.486-0.768c-0.734-1.792-1.621-3.627-2.918-5.504
				c-12.424-18.048-46.925-26.761-102.451-26.018l-9.617,62.362c-5.649,0.358-11.443,0.674-17.408,0.956l10.377-67.302l-7.031-3.311
				l-8.755,23.415c-10.317,23.8-33.374,37.939-57.506,37.939c-8.243,0-16.623-1.655-24.653-5.137l-178.014-80.299
				c-19.703-0.316-42.419-6.161-68.045-21.094c-0.401-0.23-0.879-0.222-1.314-0.384c-0.546-0.222-1.041-0.538-1.647-0.631
				c-6.613-1.126-14.336-5.82-14.336-15.377c0-4.71-3.814-8.533-8.533-8.533c-4.71,0-8.533,3.823-8.533,8.533
				c0,13.286,8.055,24.516,20.275,29.679c-7.151,37.982-17.818,93.005-19.831,99.055c-0.12,0.35-0.034,0.717-0.102,1.084
				C0.239,295.055,0,295.575,0,296.138v59.648c0,2.261,0.905,4.437,2.5,6.033c1.604,1.604,3.772,2.5,6.033,2.5
				c0,0,204.809,0,339.166-0.222c85.794-0.137,128.29-17.784,148.821-32.563C510.37,321.568,515.669,302.76,509.244,285.404z
				 M59.733,227.786c4.719,0,8.533,3.823,8.533,8.533c0,4.719-3.814,8.533-8.533,8.533c-4.71,0-8.533-3.814-8.533-8.533
				C51.2,231.609,55.023,227.786,59.733,227.786z M51.2,261.92c4.719,0,8.533,3.823,8.533,8.533c0,4.719-3.814,8.533-8.533,8.533
				c-4.71,0-8.533-3.814-8.533-8.533C42.667,265.743,46.49,261.92,51.2,261.92z M486.554,317.685
				c-15.147,10.906-53.333,29.21-138.889,29.346c-118.05,0.196-290.517,0.222-330.598,0.222V305.32
				c31.497,2.287,114.313,7.808,202.88,9.822h0.273c18.722,0.427,37.692,0.691,56.491,0.734h1.203
				c1.459,0.008,2.918,0.017,4.378,0.017c2.944,0,5.854-0.034,8.789-0.043c2.347-0.009,4.693-0.009,7.031-0.026
				c3.866-0.034,7.689-0.077,11.52-0.128c2.458-0.034,4.924-0.06,7.364-0.102c3.686-0.06,7.322-0.145,10.965-0.23
				c2.517-0.06,5.035-0.111,7.526-0.179c3.49-0.094,6.929-0.222,10.377-0.341c2.586-0.085,5.18-0.171,7.74-0.273
				c3.26-0.128,6.46-0.29,9.668-0.444c2.637-0.12,5.274-0.247,7.859-0.384c3.063-0.171,6.05-0.358,9.054-0.555
				c2.62-0.162,5.257-0.324,7.825-0.512c2.876-0.205,5.666-0.435,8.465-0.657c2.569-0.213,5.146-0.418,7.646-0.648
				c2.671-0.239,5.248-0.512,7.842-0.777c2.5-0.256,5.009-0.512,7.441-0.785c2.466-0.282,4.838-0.597,7.219-0.896
				c2.389-0.307,4.779-0.614,7.074-0.947c2.287-0.324,4.471-0.683,6.673-1.033c2.219-0.358,4.437-0.708,6.562-1.092
				c2.099-0.375,4.079-0.777,6.084-1.178c2.039-0.41,4.088-0.819,6.025-1.254c1.886-0.427,3.652-0.879,5.444-1.331
				c1.835-0.461,3.669-0.922,5.402-1.417c1.672-0.478,3.217-0.99,4.779-1.493c1.613-0.521,3.226-1.041,4.71-1.587
				c1.451-0.538,2.765-1.101,4.096-1.664c1.357-0.58,2.722-1.161,3.951-1.766c1.212-0.597,2.287-1.229,3.362-1.852
				c0.742-0.435,1.63-0.828,2.313-1.28l0.299,0.7C497.015,301.506,494.199,312.181,486.554,317.685z"/>
			<path d="M346.762,243.293l9.088-24.311l-7.526-3.541l-25.267,42.121c-1.604,2.662-4.429,4.139-7.33,4.139
				c-1.493,0-3.004-0.393-4.378-1.212c-4.045-2.432-5.35-7.671-2.927-11.708l24.38-40.644l-19.081-8.977l-24.798,41.336
				c-1.604,2.662-4.429,4.139-7.33,4.139c-1.493,0-3.004-0.393-4.378-1.212c-4.045-2.432-5.35-7.672-2.927-11.708l23.91-39.859
				l-19.081-8.977l-24.328,40.55c-1.604,2.662-4.429,4.139-7.33,4.139c-1.493,0-3.004-0.393-4.378-1.212
				c-4.045-2.432-5.35-7.671-2.927-11.708l23.441-39.074l-19.081-8.986l-23.859,39.774c-1.604,2.662-4.429,4.139-7.33,4.139
				c-1.493,0-3.004-0.393-4.378-1.212c-4.045-2.432-5.35-7.671-2.927-11.708l22.972-38.298l-23.031-10.837
				c-3.908-1.835-8.533-0.461-10.846,3.157c-1.399,2.21-22.323,34.133-61.15,46.089l153.353,69.18
				C310.112,276.752,336.821,266.197,346.762,243.293z"/>
		</g>
	</g>
</g>
</svg>